<?xml version="1.0" standalone="no"?>
<!DOCTYPE svg PUBLIC "-//W3C//DTD SVG 20010904//EN"
 "http://www.w3.org/TR/2001/REC-SVG-20010904/DTD/svg10.dtd">
<svg version="1.0" xmlns="http://www.w3.org/2000/svg"
 width="194.000000pt" height="52.000000pt" viewBox="0 0 194.000000 52.000000"
 preserveAspectRatio="xMidYMid meet">

<g transform="translate(0.000000,52.000000) scale(0.100000,-0.100000)"
fill="#000000" stroke="none">
<path d="M59 471 c-24 -19 -24 -22 -24 -210 0 -239 -8 -226 148 -225 62 0 126
1 142 2 17 0 67 1 113 1 45 -1 90 -1 100 0 9 0 56 -2 104 -5 83 -5 89 -4 112
19 22 22 27 23 43 11 59 -45 155 -36 208 21 l31 32 32 -33 c56 -59 151 -65
214 -15 23 19 23 19 45 -7 20 -26 25 -27 105 -25 45 1 97 1 113 1 17 0 48 0
70 1 22 0 51 0 65 -1 14 -1 60 -2 102 -2 110 -1 113 3 113 155 0 115 -1 122
-24 140 -30 25 -155 27 -189 3 -21 -15 -22 -14 -22 19 0 20 -7 41 -18 50 -20
18 -77 23 -86 8 -4 -5 -18 -5 -36 2 -43 16 -84 0 -88 -36 -3 -24 -8 -27 -39
-27 -26 0 -42 -8 -62 -29 -27 -28 -27 -28 -50 -10 -65 53 -159 46 -217 -17
l-31 -35 -17 26 c-20 30 -88 64 -127 65 -14 0 -46 -10 -71 -23 l-45 -23 -17
24 c-17 22 -22 23 -114 19 -54 -3 -103 -5 -109 -5 -7 0 -51 1 -98 2 l-85 1 0
48 c0 38 -5 53 -25 72 -23 24 -31 25 -133 25 -93 0 -113 -3 -133 -19z m232
-21 c15 -8 19 -22 19 -60 l0 -50 -39 0 c-37 0 -40 2 -43 33 -3 28 -7 32 -35
35 l-33 3 0 -151 0 -151 33 3 c28 3 32 7 35 36 3 30 5 32 43 32 l40 0 -3 -53
-3 -52 -115 0 -115 0 -3 180 c-2 160 -1 181 15 192 21 16 176 17 204 3z m1339
-195 c0 -89 3 -115 15 -125 9 -7 15 -23 13 -34 -3 -18 -10 -21 -48 -21 l-45 0
-3 152 c-3 151 -2 152 20 155 43 7 48 -7 48 -127z m-673 39 c51 -32 72 -110
44 -163 -42 -78 -176 -79 -216 -1 -60 116 62 232 172 164z m258 16 c25 0 74
-51 84 -86 29 -106 -80 -190 -179 -139 -63 32 -80 129 -34 184 25 31 77 53
102 45 8 -2 20 -4 27 -4z m-697 -12 c18 -18 16 -202 -2 -217 -9 -7 -42 -11
-88 -9 l-73 3 -3 59 c-2 32 2 64 8 70 5 5 31 13 58 16 38 4 48 9 50 26 4 25
-22 49 -43 40 -8 -3 -15 -17 -15 -31 0 -21 -5 -25 -30 -25 -27 0 -30 3 -30 33
0 19 3 37 7 40 12 12 148 8 161 -5z m212 -1 c0 -7 -22 -50 -49 -97 -27 -46
-47 -88 -45 -92 3 -4 25 -8 50 -8 32 0 44 -4 44 -15 0 -12 -16 -15 -80 -15
-58 0 -80 4 -80 13 0 7 22 50 49 97 27 46 47 88 45 92 -3 4 -25 8 -50 8 -32 0
-44 4 -44 15 0 12 16 15 80 15 58 0 80 -4 80 -13z m1125 -57 l0 -65 -50 -5
c-50 -5 -50 -5 -50 -40 0 -28 4 -35 20 -35 12 0 21 9 25 25 4 18 13 26 34 28
26 3 27 2 24 -35 l-3 -38 -80 0 -80 0 -3 104 c-1 58 0 111 2 118 4 10 25 13
83 11 l78 -3 0 -65z"/>
<path d="M877 213 c-12 -12 -7 -41 7 -46 22 -9 41 19 26 38 -14 16 -23 19 -33
8z"/>
<path d="M1167 213 c-12 -12 -7 -41 7 -46 22 -9 41 19 26 38 -14 16 -23 19
-33 8z"/>
<path d="M417 153 c-13 -12 -7 -54 9 -60 23 -8 47 20 39 46 -6 20 -34 28 -48
14z"/>
<path d="M1752 258 c2 -25 8 -33 23 -33 15 0 21 8 23 33 3 29 1 32 -23 32 -24
0 -26 -3 -23 -32z"/>
</g>
</svg>
