<?xml version="1.0" encoding="UTF-8"?>
<svg version="1.1" xmlns="http://www.w3.org/2000/svg" width="2127" height="548">
<path d="M0 0 C0.92103516 0.1556543 1.84207031 0.31130859 2.79101562 0.47167969 C54.87541307 9.61473614 100.67181673 35.7350738 137.875 72.75 C138.51791992 73.38824707 139.16083984 74.02649414 139.82324219 74.68408203 C149 83.8922175 149 83.8922175 149 87 C149.66 87 150.32 87 151 87 C152.72328223 89.06608568 154.3084085 91.13075478 155.875 93.3125 C156.3611377 93.98764648 156.84727539 94.66279297 157.34814453 95.35839844 C158.91561803 97.56098193 160.46218143 99.77661883 162 102 C162.48855469 102.70624512 162.97710937 103.41249023 163.48046875 104.14013672 C197.27341135 153.70840407 210.35394053 215.25834776 199.39794922 274.24121094 C192.67640096 307.44112795 178.38579371 339.83062121 155.07421875 364.76953125 C153.17519913 366.81160319 151.40162345 368.91451582 149.625 371.0625 C146.11001907 375.09462755 142.10657249 378.34709669 137.92578125 381.66796875 C135.06277053 383.94996795 132.28316468 386.30915927 129.5 388.6875 C124.30235731 393.03806924 118.9113041 397.06666036 113.4375 401.0625 C106.43201845 406.1779276 99.61889133 411.38896328 93 417 C91.87155505 417.93154867 90.74261779 418.86250117 89.61328125 419.79296875 C82.76687552 425.48526609 76.57440824 431.39765016 70.65625 438.046875 C63.92105668 445.53482522 56.68497675 452.49311238 49 459 C48.08089844 459.80824219 47.16179687 460.61648438 46.21484375 461.44921875 C7.75462086 495.05079422 -38.40822326 511.20851895 -89.3125 511.25 C-90.06155609 511.25067474 -90.81061218 511.25134949 -91.58236694 511.25204468 C-104.26124932 511.233992 -116.53337416 510.4603908 -129 508 C-129.86302734 507.83371094 -130.72605469 507.66742187 -131.61523438 507.49609375 C-151.19913307 503.59951848 -169.45374988 496.44689731 -187 487 C-188.74990234 486.07960938 -188.74990234 486.07960938 -190.53515625 485.140625 C-200.03591015 479.95644812 -208.53897068 473.72052444 -217 467 C-217.86455811 466.31333252 -217.86455811 466.31333252 -218.74658203 465.61279297 C-231.45136855 455.41391092 -243.1049906 443.95858882 -253 431 C-253.41282227 430.46890625 -253.82564453 429.9378125 -254.25097656 429.390625 C-260.1995714 421.7116099 -265.53833255 413.75134613 -270.5625 405.4375 C-271.07530518 404.5926001 -271.58811035 403.7477002 -272.11645508 402.87719727 C-274.6307852 398.63979531 -276.50269691 394.71538733 -278 390 C-278.66 389.67 -279.32 389.34 -280 389 C-280 388.01 -280 387.02 -280 386 C-280.66 385.67 -281.32 385.34 -282 385 C-283.06567383 382.82958984 -283.06567383 382.82958984 -284.20703125 379.9609375 C-284.62670166 378.91188232 -285.04637207 377.86282715 -285.47875977 376.78198242 C-285.91889404 375.65767822 -286.35902832 374.53337402 -286.8125 373.375 C-287.26101318 372.24102783 -287.70952637 371.10705566 -288.17163086 369.9387207 C-297.15774465 347.02535481 -303.06548326 323.45853701 -306 299 C-306.09571289 298.22696533 -306.19142578 297.45393066 -306.29003906 296.6574707 C-310.84743714 254.42803202 -305.53380098 210.12142013 -292 170 C-291.7520166 169.24702637 -291.5040332 168.49405273 -291.24853516 167.71826172 C-278.87813279 130.54349442 -257.83702411 98.25829953 -231 70 C-230.21496094 69.17242187 -229.42992187 68.34484375 -228.62109375 67.4921875 C-223.11837447 61.84181028 -217.21301946 56.85126177 -211 52 C-210.40268066 51.53158691 -209.80536133 51.06317383 -209.18994141 50.58056641 C-199.8545843 43.29599713 -190.34344188 36.76243033 -180 31 C-179.24686523 30.57364258 -178.49373047 30.14728516 -177.71777344 29.70800781 C-148.63708523 13.36115394 -116.96663902 3.63102786 -84 -1 C-83.20013672 -1.11714355 -82.40027344 -1.23428711 -81.57617188 -1.35498047 C-55.04625775 -5.07779786 -26.34695952 -4.58727592 0 0 Z M-89 190 C-108.19965198 212.74948824 -111.56341125 243.39877058 -110 272 C-106.79322946 306.51483482 -89.77480994 338.26781517 -66 363 C-65.33581055 363.70286133 -65.33581055 363.70286133 -64.65820312 364.41992188 C-36.2089532 394.43017317 2.86933947 412.51378668 44.20703125 414.125 C57.66583474 414.56752504 57.66583474 414.56752504 69.875 409.75 C88.82132238 390.57430325 90.9083469 345.99804457 91.09375 320.97265625 C90.73823728 273.18324553 74.82748654 224.95052528 40.39233398 190.97900391 C31.58550942 182.56854001 22.20351077 176.30861174 11.25 171 C10.48212158 170.62576904 9.71424316 170.25153809 8.9230957 169.8659668 C4.07489586 167.62829621 -0.562026 166.29492466 -5.82641602 165.40063477 C-8.65061411 164.88007888 -11.27881957 163.90706014 -14 163 C-43.44462436 157.90944927 -69.12484781 167.97870462 -89 190 Z " fill="#1D1D1B" transform="translate(327,20)"/>
<path d="M0 0 C13.53 0 27.06 0 41 0 C44.45758072 7.4914249 47.89090974 14.93048742 51.07421875 22.53125 C51.43559433 23.38886429 51.79696991 24.24647858 52.16929626 25.13008118 C53.34404988 27.9192092 54.51575147 30.70960835 55.6875 33.5 C56.52433669 35.48797545 57.3614185 37.47584773 58.19873047 39.46362305 C59.93570997 43.58780581 61.67164466 47.71242583 63.40673828 51.83740234 C67.47147462 61.49915053 71.54799804 71.15592273 75.625 80.8125 C76.21338654 82.20643982 76.21338654 82.20643982 76.81365967 83.62854004 C84.17020257 101.05577097 91.56427124 118.46690981 98.97009277 135.87324524 C101.36334019 141.4995846 103.75133522 147.128135 106.13671875 152.7578125 C106.46613968 153.53511719 106.79556061 154.31242188 107.13496399 155.11328125 C108.69075941 158.78450655 110.2459101 162.45600276 111.80004883 166.12792969 C112.34583831 167.41602731 112.89165378 168.70411392 113.4375 169.9921875 C113.91058594 171.10964355 114.38367187 172.22709961 114.87109375 173.37841797 C115.54192168 174.93623593 116.2414742 176.48294841 117 178 C117.35489502 177.14510986 117.70979004 176.29021973 118.07543945 175.40942383 C128.14680854 151.15793423 138.33278184 126.95590941 148.56054688 102.77001953 C152.15084295 94.27915918 155.73571142 85.78600748 159.32092285 77.29299927 C160.88422844 73.58983925 162.44782255 69.8868011 164.01141357 66.1837616 C167.33237016 58.31874402 170.65287131 50.4535344 173.97277832 42.58807373 C175.72614091 38.43408217 177.47964219 34.28014915 179.2331543 30.1262207 C180.06932398 28.14529298 180.90542565 26.16433654 181.74145508 24.18334961 C182.90038133 21.43726458 184.05954159 18.69127843 185.21875 15.9453125 C185.55849854 15.14010162 185.89824707 14.33489075 186.24829102 13.50527954 C186.56789795 12.7483078 186.88750488 11.99133606 187.21679688 11.21142578 C187.49036011 10.56327911 187.76392334 9.91513245 188.04577637 9.24734497 C189.35600479 6.16155339 190.67941188 3.08137229 192 0 C205.53 0 219.06 0 233 0 C233 76.23 233 152.46 233 231 C221.78 231 210.56 231 199 231 C198.67 176.55 198.34 122.1 198 66 C193.05 77.88 188.1 89.76 183 102 C180.15548014 108.73353035 177.3066464 115.46454155 174.4375 122.1875 C173.72754119 123.85426102 173.01774778 125.52109249 172.30810547 127.18798828 C170.88637625 130.527382 169.46413128 133.86655522 168.04150391 137.20556641 C163.47411566 147.9285883 158.92705049 158.66025973 154.37828064 169.39118958 C152.62384818 173.52981772 150.86706768 177.66744259 149.109375 181.8046875 C145.26559981 190.86143021 141.43564279 199.92275004 137.6875 209.01953125 C137.41032135 209.6918277 137.1331427 210.36412415 136.8475647 211.05679321 C135.49265701 214.34456163 134.14101953 217.6336191 132.79443359 220.92480469 C132.31312988 222.0955957 131.83182617 223.26638672 131.3359375 224.47265625 C130.90845215 225.51687744 130.4809668 226.56109863 130.04052734 227.63696289 C129 230 129 230 128 231 C126.29227642 231.08713831 124.58101351 231.10700007 122.87109375 231.09765625 C121.31938477 231.09282227 121.31938477 231.09282227 119.73632812 231.08789062 C118.64771484 231.07951172 117.55910156 231.07113281 116.4375 231.0625 C114.7987793 231.05573242 114.7987793 231.05573242 113.12695312 231.04882812 C110.41791505 231.03699826 107.70898401 231.02051543 105 231 C104.61481201 230.08452393 104.22962402 229.16904785 103.83276367 228.22583008 C89.49538077 194.15266027 75.14761882 160.08380215 60.6875 126.0625 C60.3387381 125.24187073 59.9899762 124.42124146 59.63064575 123.57574463 C55.86174405 114.7092589 52.08312917 105.84709786 48.28027344 96.99511719 C43.74163233 86.37725886 39.39638661 75.67693892 35 65 C34.67 119.78 34.34 174.56 34 231 C22.78 231 11.56 231 0 231 C0 154.77 0 78.54 0 0 Z " fill="#1D1D1B" transform="translate(1250,189)"/>
<path d="M0 0 C25.89688519 23.3145747 36.20601166 55.3526992 38.1875 89.203125 C38.89657059 120.93403399 28.74643925 154.25060445 6.59399414 177.48046875 C-15.15429876 199.50126207 -42.65221669 210.87296158 -73.625 211.1875 C-91.27446213 211.11494525 -109.01075036 207.71097847 -125 200 C-125.33 199.34 -125.66 198.68 -126 198 C-127.30130859 197.58814453 -127.30130859 197.58814453 -128.62890625 197.16796875 C-132.6276853 195.7825285 -135.55032143 193.79732605 -138.9375 191.3125 C-139.55141602 190.86914307 -140.16533203 190.42578613 -140.79785156 189.96899414 C-144.79055382 187.03383848 -148.41635431 183.94600365 -151.765625 180.27734375 C-152.99417993 178.86440647 -152.99417993 178.86440647 -155 178 C-155 177.34 -155 176.68 -155 176 C-155.66 176 -156.32 176 -157 176 C-180.13367606 147.81372698 -188.73904626 113.2219804 -185.77294922 77.24609375 C-182.5238855 46.11926105 -168.54024058 17.78606848 -145 -3 C-102.884287 -36.72443601 -40.67344311 -35.14185485 0 0 Z M-127.4609375 28.1484375 C-145.72997888 50.1269289 -151.29222527 77.44194459 -148.78173828 105.43359375 C-146.02285157 127.81500156 -136.78521512 148.41417902 -119.33203125 163.19140625 C-104.29212183 174.8555236 -85.80938088 179.29024692 -67 178 C-52.69037794 176.11754201 -40.7573705 171.29932035 -29 163 C-28.36449219 162.55140625 -27.72898437 162.1028125 -27.07421875 161.640625 C-10.42174551 148.62489879 -2.77581778 126.49908636 0.25 106.4375 C3.31179841 80.13883863 -1.73374918 52.98804015 -17.875 31.5 C-19.44435586 29.45607116 -19.44435586 29.45607116 -21 28 C-21.66 28 -22.32 28 -23 28 C-23 27.34 -23 26.68 -23 26 C-23.66 26 -24.32 26 -25 26 C-25.495 24.515 -25.495 24.515 -26 23 C-41.37848492 9.68487574 -60.94836361 4.57892728 -80.89697266 5.81542969 C-98.40950034 7.352401 -115.43402253 15.17358835 -127.4609375 28.1484375 Z " fill="#1D1D1B" transform="translate(797,212)"/>
<path d="M0 0 C16.80559844 13.13570119 25.86073388 30.90305413 29.46484375 51.6796875 C30.54951387 60.74336934 30.49763911 70.01416534 29 79 C-10.93 79 -50.86 79 -92 79 C-88.00102766 94.99588936 -84.59697632 105.19288522 -71.20703125 114.20703125 C-59.1083379 121.09477352 -44.64779412 121.03885845 -31.4140625 118.2421875 C-20.51913426 115.22005123 -13.16845449 110.4852628 -7 101 C-6.01 99.515 -6.01 99.515 -5 98 C1.60132039 98.6149815 7.65462154 100.17639095 14 102.0625 C14.96550781 102.34416016 15.93101562 102.62582031 16.92578125 102.91601562 C19.28550816 103.60524279 21.64345085 104.30000011 24 105 C19.43157959 120.29318117 8.46784168 132.59734607 -5.47509766 140.30004883 C-25.99149872 150.97706389 -49.7465563 152.75827347 -72 147 C-92.22871025 140.42799967 -107.18691433 127.38689913 -117.17578125 108.7734375 C-128.42960933 86.45285796 -128.67949704 59.37404862 -121.16040039 35.90185547 C-114.62884217 16.8010473 -102.00011568 1.76134232 -84 -7.375 C-77.85635898 -10.37486144 -71.73573788 -12.68967157 -65 -14 C-63.68902344 -14.27263672 -63.68902344 -14.27263672 -62.3515625 -14.55078125 C-39.91451653 -17.55807762 -18.45106389 -13.43128915 0 0 Z M-82.8125 27.75 C-89.22775055 35.72735647 -90.95983559 41.59835594 -92 52 C-62.63 52 -33.26 52 -3 52 C-4.29859368 40.31265686 -7.75720438 32.03182725 -16.4453125 23.97265625 C-35.57203553 9.20355055 -65.8144806 9.61877931 -82.8125 27.75 Z " fill="#1D1D1B" transform="translate(1151,273)"/>
<path d="M0 0 C18.29772002 14.34738766 28.83600253 32.15029055 32.1875 55.25 C34.2089323 82.13036936 29.55809618 105.18504389 12.1875 126.25 C11.67058594 126.88035156 11.15367187 127.51070312 10.62109375 128.16015625 C-1.82857013 141.85790674 -22.60983515 150.26349194 -40.8125 151.25 C-50.20310378 151.52133654 -59.45952729 151.04599768 -68.8125 150.25 C-68.8125 149.59 -68.8125 148.93 -68.8125 148.25 C-69.8025 148.58 -70.7925 148.91 -71.8125 149.25 C-92.811463 142.94045243 -109.55106617 128.3716005 -120.20703125 109.546875 C-123.77903876 102.21165763 -126.39352972 94.28653167 -127.8125 86.25 C-127.99296875 85.38246094 -128.1734375 84.51492188 -128.359375 83.62109375 C-131.48433058 60.37250184 -127.30961961 36.69197569 -113.8125 17.25 C-86.84828059 -16.5724174 -36.03434406 -24.96262526 0 0 Z M-81.5625 29.9375 C-85.60966478 34.88191358 -88.32489921 40.39283086 -90.8125 46.25 C-91.15539063 47.05566406 -91.49828125 47.86132812 -91.8515625 48.69140625 C-96.93642727 63.49454059 -95.01144493 82.45414417 -88.5625 96.4375 C-82.18080542 108.25405021 -73.58109382 116.33864632 -60.65234375 120.52734375 C-49.23477676 123.43277689 -37.49628894 122.48838943 -26.9375 117 C-13.88652765 108.83105805 -6.63313447 97.09973068 -3.09375 82.23046875 C0.16076853 64.86589948 -2.79232338 46.97764215 -12.8125 32.25 C-19.89119598 23.34181997 -30.31935391 16.57295207 -41.8125 15.25 C-57.48520038 13.90902029 -70.67383221 18.50202138 -81.5625 29.9375 Z " fill="#1D1D1B" transform="translate(1640.8125,271.75)"/>
<path d="M0 0 C11.04132272 9.06440018 17.53685223 23.25171957 19.46708488 37.22314644 C19.89431992 41.62034014 19.80483193 46.03327302 19.78930664 50.44702148 C19.78945267 51.54044357 19.78959869 52.63386566 19.78974915 53.76042175 C19.78905496 57.35853083 19.78128568 60.95658752 19.7734375 64.5546875 C19.77157157 67.05575024 19.77014849 69.55681335 19.76914978 72.05787659 C19.76572754 77.95795264 19.7578537 83.85800948 19.74780029 89.75807768 C19.73549852 97.13884533 19.73014935 104.51961533 19.72460938 111.90039062 C19.7138964 125.05730299 19.69631078 138.21419304 19.67578125 151.37109375 C8.12578125 151.37109375 -3.42421875 151.37109375 -15.32421875 151.37109375 C-15.34403809 148.18735107 -15.36385742 145.0036084 -15.38427734 141.72338867 C-15.45132757 131.178131 -15.5289648 120.63297014 -15.61174583 110.08782482 C-15.66158968 103.69732501 -15.70792056 97.30684079 -15.74609375 90.91625977 C-15.78309724 84.74349598 -15.82949757 78.57086645 -15.88228226 72.39821815 C-15.90074637 70.04886555 -15.91588344 67.69948425 -15.92756271 65.35008812 C-15.94456233 62.04729988 -15.97362959 58.74481379 -16.00537109 55.44213867 C-16.00753128 54.48115768 -16.00969147 53.5201767 -16.01191711 52.53007507 C-16.09052535 46.08398678 -16.49686561 39.58773848 -18.32421875 33.37109375 C-18.98421875 33.04109375 -19.64421875 32.71109375 -20.32421875 32.37109375 C-20.92234375 31.44296875 -21.52046875 30.51484375 -22.13671875 29.55859375 C-25.73257569 24.31891649 -29.26155526 22.05596698 -35.32421875 20.37109375 C-47.37888944 19.21920299 -56.17483601 20.675611 -65.57421875 28.37109375 C-75.84717012 38.24086807 -79.27414979 51.84553411 -79.70657539 65.70156956 C-79.79534777 70.4625812 -79.82120078 75.222642 -79.8359375 79.984375 C-79.85281296 82.05088854 -79.87096698 84.11739199 -79.89033508 86.18388367 C-79.93753001 91.58089037 -79.96753579 96.97785617 -79.99377441 102.375 C-80.02373505 107.89917068 -80.07021154 113.42320081 -80.11523438 118.94726562 C-80.20091991 129.75515036 -80.26688906 140.56302138 -80.32421875 151.37109375 C-91.87421875 151.37109375 -103.42421875 151.37109375 -115.32421875 151.37109375 C-115.32421875 98.90109375 -115.32421875 46.43109375 -115.32421875 -7.62890625 C-103.77421875 -7.62890625 -92.22421875 -7.62890625 -80.32421875 -7.62890625 C-79.99421875 -1.02890625 -79.66421875 5.57109375 -79.32421875 12.37109375 C-77.62265625 10.11265625 -77.62265625 10.11265625 -75.88671875 7.80859375 C-57.21009363 -15.34911305 -23.64406029 -16.57071116 0 0 Z " fill="#1D1D1B" transform="translate(1980.32421875,268.62890625)"/>
<path d="M0 0 C0.69480469 0.49113281 1.38960937 0.98226563 2.10546875 1.48828125 C3.15734375 2.23078125 4.20921875 2.97328125 5.29296875 3.73828125 C18.38762726 16.54194735 23.09089013 33.35370196 23.42169476 51.17891598 C23.46493658 56.86459806 23.43665534 62.5487462 23.3984375 68.234375 C23.39283171 70.70158122 23.38856627 73.16879081 23.38557434 75.63600159 C23.374203 82.08197496 23.34480322 88.52774064 23.3114624 94.97363281 C23.28059408 101.57028394 23.2670334 108.16696911 23.25195312 114.76367188 C23.21992526 127.67198022 23.16722138 140.58008085 23.10546875 153.48828125 C11.55546875 153.48828125 0.00546875 153.48828125 -11.89453125 153.48828125 C-11.90911377 150.33483154 -11.92369629 147.18138184 -11.9387207 143.93237305 C-11.98916803 133.48687245 -12.05578102 123.04151934 -12.13024616 112.59616375 C-12.17488021 106.2661893 -12.21415181 99.93627818 -12.2409668 93.60620117 C-12.26706905 87.49174312 -12.30752068 81.37752969 -12.35771751 75.26322365 C-12.37433942 72.93620673 -12.38588269 70.60914755 -12.39214516 68.2820797 C-12.40183706 65.01030503 -12.42995762 61.73914965 -12.4621582 58.4675293 C-12.46072311 57.51589905 -12.45928802 56.5642688 -12.45780945 55.58380127 C-12.58951437 46.05614036 -14.37919159 35.83678455 -20.89453125 28.48828125 C-28.99023952 22.13528905 -36.91789009 21.78286218 -46.89453125 22.48828125 C-56.08792829 24.52308646 -62.75531621 30.20685323 -68.14453125 37.73828125 C-74.2536989 47.47632778 -76.02406424 57.50792622 -76.09985352 68.79833984 C-76.10975311 69.71605164 -76.11965271 70.63376343 -76.12985229 71.57928467 C-76.16132084 74.59840354 -76.18616659 77.61753812 -76.2109375 80.63671875 C-76.23151968 82.73565061 -76.25251648 84.83457845 -76.27391052 86.9335022 C-76.32900061 92.44733409 -76.37846733 97.96120258 -76.42675781 103.47509766 C-76.47706841 109.10582725 -76.53270451 114.73650395 -76.58789062 120.3671875 C-76.69531236 131.4075085 -76.79630025 142.44787464 -76.89453125 153.48828125 C-88.44453125 153.48828125 -99.99453125 153.48828125 -111.89453125 153.48828125 C-111.89453125 101.01828125 -111.89453125 48.54828125 -111.89453125 -5.51171875 C-100.34453125 -5.51171875 -88.79453125 -5.51171875 -76.89453125 -5.51171875 C-76.89453125 1.74828125 -76.89453125 9.00828125 -76.89453125 16.48828125 C-75.92515625 15.00328125 -74.95578125 13.51828125 -73.95703125 11.98828125 C-57.36665497 -11.51752242 -23.65456143 -15.5510412 0 0 Z " fill="#1D1D1B" transform="translate(975.89453125,266.51171875)"/>
<path d="M0 0 C11.55 0 23.1 0 35 0 C35.01458252 3.08762695 35.02916504 6.17525391 35.04418945 9.35644531 C35.09466434 19.59039694 35.161282 29.82419847 35.23571491 40.05800247 C35.28032578 46.25903254 35.31960234 52.45999831 35.34643555 58.66113281 C35.37256112 64.65240446 35.41302881 70.64342743 35.46318626 76.63454437 C35.47979252 78.91328575 35.49134546 81.19207008 35.49761391 83.47086334 C35.02136163 106.34628034 35.02136163 106.34628034 45.6875 125.75 C52.152943 130.65984769 60.06520931 132.0571802 68 131 C78.83298041 128.32201462 86.32193378 123.06764803 92.4609375 113.7890625 C97.6868179 104.31881224 99.13312398 94.41989943 99.20532227 83.78173828 C99.21522186 82.87378006 99.22512146 81.96582184 99.23532104 81.03034973 C99.26678639 78.04369674 99.29163406 75.05702787 99.31640625 72.0703125 C99.33698871 69.99380084 99.35798552 67.91729325 99.37937927 65.84078979 C99.4344665 60.386142 99.48393447 54.93145723 99.53222656 49.47674561 C99.58253926 43.90633876 99.63817426 38.33598533 99.69335938 32.765625 C99.80077761 21.84379403 99.90176655 10.92191745 100 0 C111.55 0 123.1 0 135 0 C135 52.47 135 104.94 135 159 C123.45 159 111.9 159 100 159 C100 151.41 100 143.82 100 136 C96.535 140.455 96.535 140.455 93 145 C84.45695669 155.09904419 74.23673264 160.79317778 61 162 C44.64556893 163.34856628 29.82042478 158.70472533 17.3203125 148.22265625 C4.91010191 136.33476092 0.30319183 119.13258433 -0.2593689 102.40234375 C-0.38284522 95.87211352 -0.33823382 89.34333134 -0.29296875 82.8125 C-0.28736152 80.41398384 -0.28309676 78.01546421 -0.28010559 75.61694336 C-0.26874557 69.35675278 -0.23935604 63.09677674 -0.20599365 56.83666992 C-0.17510043 50.42760112 -0.16155941 44.01849707 -0.14648438 37.609375 C-0.11447659 25.07280807 -0.06178247 12.53645558 0 0 Z " fill="#1D1D1B" transform="translate(1697,261)"/>
<path d="M0 0 C11.22 0 22.44 0 34 0 C34 13.86 34 27.72 34 42 C43.24 42 52.48 42 62 42 C62 51.57 62 61.14 62 71 C52.76 71 43.52 71 34 71 C34.08556511 83.13528953 34.17934854 95.27043962 34.28752708 107.40554905 C34.33743381 113.04060475 34.38376446 118.67564221 34.421875 124.31079102 C34.45879867 129.75087331 34.50517806 135.19080094 34.55806351 140.63075066 C34.5765698 142.70429707 34.5916916 144.7778766 34.60334396 146.85147285 C34.62027078 149.75994772 34.64932156 152.66807127 34.68115234 155.57641602 C34.68331253 156.43021851 34.68547272 157.284021 34.68769836 158.16369629 C34.75710293 163.14082055 35.40982608 167.27683933 37 172 C38.87346267 172.20228417 40.74896625 172.3856424 42.625 172.5625 C43.66914063 172.66691406 44.71328125 172.77132812 45.7890625 172.87890625 C51.86392927 173.05360093 57.93806634 172.43299526 64 172 C64 181.57 64 191.14 64 201 C45.59159729 205.09075616 27.87590989 206.58984898 11.375 196.375 C3.01061654 188.01061654 -0.31839316 176.7779409 -0.3732605 165.1583252 C-0.36247467 164.2440979 -0.35168884 163.32987061 -0.34057617 162.38793945 C-0.34123329 160.89323372 -0.34123329 160.89323372 -0.34190369 159.36833191 C-0.33983495 156.11644003 -0.31659509 152.86508163 -0.29296875 149.61328125 C-0.28736598 147.34214052 -0.2830991 145.07099613 -0.28010559 142.79985046 C-0.26871051 136.85358479 -0.23928961 130.90754273 -0.20599365 124.96136475 C-0.17517724 118.88117496 -0.16157561 112.80094867 -0.14648438 106.72070312 C-0.11441447 94.81368858 -0.06169049 82.90689796 0 71 C-8.58 71 -17.16 71 -26 71 C-26 61.43 -26 51.86 -26 42 C-17.42 42 -8.84 42 0 42 C0 28.14 0 14.28 0 0 Z " fill="#1D1D1B" transform="translate(2044,219)"/>
</svg>
